<svg width="60" height="60" viewBox="0 0 60 60" fill="none" xmlns="http://www.w3.org/2000/svg">
<rect width="60" height="60" rx="30" fill="black" fill-opacity="0.05"/>
<path d="M34.756 23.36C36.776 25.56 36.776 28.61 34.756 30.63L33.076 28.94C33.916 27.76 33.916 26.23 33.076 25.05L34.756 23.36ZM38.066 20C42.006 24.05 41.966 30.11 38.066 34L36.436 32.37C39.206 29.19 39.206 24.65 36.436 21.63L38.066 20ZM27.006 23C29.206 23 31.006 24.79 31.006 27C31.006 29.21 29.206 31 27.006 31C24.806 31 23.006 29.21 23.006 27C23.006 24.79 24.796 23 27.006 23ZM31.006 33.54C31.006 34.6 30.716 37.07 28.806 39.83L28.006 35L28.936 33.12C28.316 33.05 27.666 33 27.006 33C26.346 33 25.676 33.05 25.056 33.12L26.006 35L25.186 39.83C23.276 37.07 23.006 34.6 23.006 33.54C20.606 34.24 19 35.5 19 37V41H35.006V37C35.006 35.5 33.396 34.24 31.006 33.54Z" fill="#2946BE" fill-opacity="0.59"/>
</svg>
