<svg width="29" height="28" viewBox="0 0 29 28" fill="none" xmlns="http://www.w3.org/2000/svg">
<g id="Vector" filter="url(#filter0_d_21_7)">
<path d="M16.6125 0.5C9.7875 0.5 4.225 6.0625 4.225 12.8875C4.225 15.075 4.8 17.2 5.875 19.075L4.125 25.5L10.6875 23.775C12.5 24.7625 14.5375 25.2875 16.6125 25.2875C23.4375 25.2875 29 19.725 29 12.9C29 9.5875 27.7125 6.475 25.375 4.1375C23.0375 1.7875 19.925 0.5 16.6125 0.5ZM16.625 2.5875C19.375 2.5875 21.95 3.6625 23.9 5.6125C25.8375 7.5625 26.9125 10.15 26.9125 12.9C26.9125 18.575 22.2875 23.1875 16.6125 23.1875C14.7625 23.1875 12.95 22.7 11.375 21.75L11 21.5375L7.1 22.5625L8.1375 18.7625L7.8875 18.3625C6.8625 16.75 6.3125 14.8375 6.3125 12.8875C6.325 7.2125 10.9375 2.5875 16.625 2.5875ZM12.225 7.1625C12.025 7.1625 11.6875 7.2375 11.4 7.55C11.125 7.8625 10.3125 8.625 10.3125 10.1375C10.3125 11.6625 11.425 13.125 11.5625 13.3375C11.7375 13.55 13.7625 16.675 16.875 18C17.6125 18.3375 18.1875 18.525 18.6375 18.6625C19.375 18.9 20.05 18.8625 20.5875 18.7875C21.1875 18.7 22.4125 18.0375 22.675 17.3125C22.9375 16.5875 22.9375 15.975 22.8625 15.8375C22.775 15.7125 22.575 15.6375 22.2625 15.5C21.95 15.325 20.425 14.575 20.15 14.475C19.8625 14.375 19.6875 14.325 19.45 14.625C19.25 14.9375 18.65 15.6375 18.475 15.8375C18.2875 16.05 18.1125 16.075 17.8125 15.925C17.4875 15.7625 16.4875 15.4375 15.3125 14.3875C14.3875 13.5625 13.775 12.55 13.5875 12.2375C13.4375 11.9375 13.575 11.75 13.725 11.6125C13.8625 11.475 14.0625 11.25 14.1875 11.0625C14.35 10.8875 14.4 10.75 14.5 10.55C14.6 10.3375 14.55 10.1625 14.475 10.0125C14.4 9.875 13.775 8.325 13.5125 7.7125C13.2625 7.1125 13.0125 7.1875 12.8125 7.175C12.6375 7.175 12.4375 7.1625 12.225 7.1625Z" fill="#0F4C83"/>
</g>
<defs>
<filter id="filter0_d_21_7" x="0.125" y="0.5" width="32.875" height="33" filterUnits="userSpaceOnUse" color-interpolation-filters="sRGB">
<feFlood flood-opacity="0" result="BackgroundImageFix"/>
<feColorMatrix in="SourceAlpha" type="matrix" values="0 0 0 0 0 0 0 0 0 0 0 0 0 0 0 0 0 0 127 0" result="hardAlpha"/>
<feOffset dy="4"/>
<feGaussianBlur stdDeviation="2"/>
<feComposite in2="hardAlpha" operator="out"/>
<feColorMatrix type="matrix" values="0 0 0 0 0 0 0 0 0 0 0 0 0 0 0 0 0 0 0.25 0"/>
<feBlend mode="normal" in2="BackgroundImageFix" result="effect1_dropShadow_21_7"/>
<feBlend mode="normal" in="SourceGraphic" in2="effect1_dropShadow_21_7" result="shape"/>
</filter>
</defs>
</svg>
